<svg width="285" height="38" viewBox="0 0 285 38" fill="none" xmlns="http://www.w3.org/2000/svg">
<path fill-rule="evenodd" clip-rule="evenodd" d="M22.9287 23.059C21.6784 18.4045 20.7758 14.9018 19.9749 11.5494C19.124 14.9018 18.2237 18.3043 16.7715 23.059H22.9287ZM26.5834 36.6698L25.1312 31.6154H14.619L13.2177 36.6698H0L12.867 1.33962H27.836L40 36.6698H26.5834Z" fill="#020303"/>
<path fill-rule="evenodd" clip-rule="evenodd" d="M62.968 36.6698C59.7826 30.465 56.5489 24.4097 53.5619 18.3043C53.6592 21.4564 53.709 25.8105 53.709 36.6698H42V1.33962H55.4235C58.4611 7.39493 61.7445 13.6999 64.5339 19.8561C64.3393 15.8018 64.242 12.3985 64.242 1.33962H76V36.6698H62.968Z" fill="#020303"/>
<path fill-rule="evenodd" clip-rule="evenodd" d="M80 36.6698V1.33962H107V10.4969H91.8333V15.0506H105.956V24.1593H91.8333V36.6698H80Z" fill="#020303"/>
<path fill-rule="evenodd" clip-rule="evenodd" d="M111 36.6698H123V1.33962H111V36.6698Z" fill="#020303"/>
<path fill-rule="evenodd" clip-rule="evenodd" d="M134.503 36.6698V10.4969H126V1.33962H155V10.4969H146.544V36.6698H134.503Z" fill="#020303"/>
<path fill-rule="evenodd" clip-rule="evenodd" d="M174.285 15.7525C176.801 15.7525 177.789 15.1022 177.789 13.0496C177.789 11.3984 177 10.4969 174.235 10.4969H169.892V15.7525H174.285ZM178.479 36.6698L172.41 25.0107H169.892V36.6698H158V1.33962H174.679C178.676 1.33962 182.921 1.58927 185.091 2.69106C188.595 4.44164 190.57 7.94506 190.57 12.6998C190.57 17.8536 188.397 21.2068 183.808 23.059L192 36.6698H178.479Z" fill="#020303"/>
<path fill-rule="evenodd" clip-rule="evenodd" d="M194 36.6698H206V1.33962H194V36.6698Z" fill="#020303"/>
<path fill-rule="evenodd" clip-rule="evenodd" d="M228.622 10.5576C224.74 10.5576 222.235 13.0632 222.235 18.9302C222.235 24.9455 224.888 27.5529 228.622 27.5529C232.209 27.5529 234.716 25.1964 234.716 18.7295C234.471 12.864 232.209 10.5576 228.622 10.5576M228.77 37.6792C217.419 37.6792 210 31.1128 210 18.9804C210 7.34891 217.223 0.330185 228.721 0.330185C240.072 0.330185 247 6.99847 247 18.9804C247 32.2151 238.893 37.6792 228.77 37.6792" fill="#020303"/>
<path fill-rule="evenodd" clip-rule="evenodd" d="M271.967 36.6698C268.784 30.465 265.551 24.4097 262.561 18.3043C262.661 21.4564 262.709 25.8105 262.709 36.6698H251V1.33962H264.423C267.461 7.39493 270.744 13.6999 273.536 19.8561C273.341 15.8018 273.241 12.3985 273.241 1.33962H285V36.6698H271.967Z" fill="#020303"/>
</svg>
