<!-- Generated by IcoMoon.io -->
<svg version="1.1" xmlns="http://www.w3.org/2000/svg" width="3449" height="1024" viewBox="0 0 3449 1024">
<title></title>
<g id="icomoon-ignore">
</g>
<path fill="#000" d="M569.276 555.63c-12.077-44.544-20.797-78.065-28.534-110.148-8.22 32.083-16.917 64.645-30.946 110.148h59.48zM604.579 685.887l-14.029-48.371h-101.552l-13.537 48.371h-127.688l124.3-338.113h144.606l117.509 338.113h-129.609z"></path>
<path fill="#000" d="M956.068 685.887c-30.772-59.38-62.011-117.33-90.866-175.759 0.94 30.165 1.421 71.835 1.421 175.759h-113.113v-338.113h129.676c29.344 57.95 61.063 118.288 88.011 177.204-1.884-38.8-2.821-71.37-2.821-177.204h113.587v338.113h-125.894z"></path>
<path fill="#000" d="M1120.604 685.887v-338.113h260.83v87.636h-146.519v43.579h136.434v87.171h-136.434v119.727h-114.311z"></path>
<path fill="#000" d="M1420.075 685.887h115.925v-338.113h-115.925v338.113z"></path>
<path fill="#000" d="M1647.123 685.887v-250.477h-82.142v-87.636h280.151v87.636h-81.688v250.477h-116.321z"></path>
<path fill="#000" d="M2031.432 485.705c24.306 0 33.85-6.223 33.85-25.867 0-15.801-7.622-24.429-34.333-24.429h-41.955v50.296h42.438zM2071.948 685.887l-58.629-111.578h-24.325v111.578h-114.881v-338.113h161.125c38.613 0 79.621 2.389 100.584 12.933 33.85 16.753 52.929 50.281 52.929 95.785 0 49.322-20.992 81.413-65.323 99.139l79.138 130.257h-130.618z"></path>
<path fill="#000" d="M2221.887 685.887h115.925v-338.113h-115.925v338.113z"></path>
<path fill="#000" d="M2556.358 435.99c-37.511 0-61.71 23.979-61.71 80.127 0 57.567 25.629 82.52 61.71 82.52 34.642 0 58.87-22.552 58.87-84.44-2.376-56.134-24.228-78.207-58.87-78.207zM2557.778 695.547c-109.655 0-181.325-62.841-181.325-178.95 0-111.315 69.777-178.484 180.852-178.484 109.655 0 176.582 63.816 176.582 178.484 0 126.657-78.317 178.95-176.109 178.95z"></path>
<path fill="#000" d="M2975.077 685.887c-30.749-59.38-61.981-117.33-90.866-175.759 0.966 30.165 1.43 71.835 1.43 175.759h-113.113v-338.113h129.671c29.348 57.95 61.063 118.288 88.035 177.204-1.884-38.8-2.85-71.37-2.85-177.204h113.596v338.113h-125.904z"></path>
</svg>
