<svg width="55" height="76" viewBox="0 0 55 76" fill="none" xmlns="http://www.w3.org/2000/svg">
<path fill-rule="evenodd" clip-rule="evenodd" d="M22.1943 3.976H32.0744V0H22.1943V3.976Z" fill="black"/>
<path fill-rule="evenodd" clip-rule="evenodd" d="M43.7194 75.6056H10.5811L13.4399 32.5664L17.3927 32.8308L14.8157 71.6296H39.4883L36.9432 32.8292L40.8964 32.568L43.7194 75.6056Z" fill="black"/>
<path fill-rule="evenodd" clip-rule="evenodd" d="M40.5285 34.6866H26.2676V30.7106H37.3122L39.6661 19.459L43.5428 20.2762L40.5285 34.6866Z" fill="black"/>
<path fill-rule="evenodd" clip-rule="evenodd" d="M18.5379 34.6866H13.6871L10.6729 20.2762L14.5496 19.459L16.903 30.7106H18.5379V34.6866Z" fill="black"/>
<path fill-rule="evenodd" clip-rule="evenodd" d="M31.8223 73.617H27.8607V32.8718L16.5733 7.39983H9.83902L3.90101 41.0614L0 40.3694L6.49438 3.42383H19.1472L31.8223 32.0274V73.617Z" fill="black"/>
<path fill-rule="evenodd" clip-rule="evenodd" d="M50.4313 41.0348L44.9795 7.4008H37.1352L27.8526 25.8644L24.3154 24.0732L34.6965 3.4248H48.37L54.3414 40.3972L50.4313 41.0348Z" fill="black"/>
<path fill-rule="evenodd" clip-rule="evenodd" d="M20.4219 49.0931H24.3835V30.8135H20.4219V49.0931Z" fill="black"/>
</svg>
