<svg width="64" height="53" viewBox="0 0 64 53" fill="none" xmlns="http://www.w3.org/2000/svg">
<path fill-rule="evenodd" clip-rule="evenodd" d="M40.5447 36.7224C40.5112 36.6859 36.5897 32.4594 31.6482 32.4594C25.8072 32.4594 22.9677 36.4449 22.9397 36.4849L18.9902 33.7384C19.1632 33.4894 23.3212 27.6484 31.6482 27.6484C38.7592 27.6484 43.9022 33.2619 44.1177 33.5009L40.5447 36.7224Z" fill="black"/>
<path fill-rule="evenodd" clip-rule="evenodd" d="M50.1677 27.587C50.0907 27.502 42.0397 18.768 31.6482 18.768C19.4272 18.768 13.3767 27.264 13.3167 27.3495L9.36719 24.603C9.66969 24.1685 16.9407 13.957 31.6482 13.957C44.2127 13.957 53.3577 23.941 53.7407 24.3655L50.1677 27.587Z" fill="black"/>
<path fill-rule="evenodd" clip-rule="evenodd" d="M59.535 18.0645C59.4165 17.934 47.3465 4.8105 31.648 4.8105C13.3195 4.8105 4.32 17.301 3.946 17.833L0 15.0805C0.4285 14.465 10.7285 0 31.648 0C49.5205 0 62.562 14.237 63.108 14.8435L59.535 18.0645Z" fill="black"/>
<path fill-rule="evenodd" clip-rule="evenodd" d="M31.6482 45.1079C30.9857 45.1079 30.4467 45.6469 30.4467 46.3094C30.4467 46.9719 30.9857 47.5109 31.6482 47.5109C32.3107 47.5109 32.8497 46.9719 32.8497 46.3094C32.8497 45.6469 32.3107 45.1079 31.6482 45.1079ZM31.6482 52.3219C28.3327 52.3219 25.6357 49.6249 25.6357 46.3094C25.6357 42.9939 28.3327 40.2969 31.6482 40.2969C34.9632 40.2969 37.6607 42.9939 37.6607 46.3094C37.6607 49.6249 34.9632 52.3219 31.6482 52.3219Z" fill="black"/>
</svg>
