<svg width="29" height="26" viewBox="0 0 29 26" fill="none" xmlns="http://www.w3.org/2000/svg">
<path fill-rule="evenodd" clip-rule="evenodd" d="M28.9634 1.62322C29.2276 0.454566 28.0054 -0.441876 27.0932 0.251433C26.2373 0.901931 25.3067 1.42783 24.3256 1.81643C22.4974 0.0535126 19.8858 -0.49084 17.5512 0.469292C14.9696 1.531 13.273 4.2077 13.2916 7.18167C9.82818 6.90164 6.63503 4.96739 4.61552 1.86883C4.07586 1.04081 2.9042 1.16367 2.52283 2.08827C2.36544 2.46984 2.14392 3.1204 1.92596 3.98381C1.20544 6.83809 1.07938 9.8435 1.94305 12.7034C2.77953 15.4733 4.48463 17.8148 7.14754 19.5834C5.31333 20.4937 3.29622 20.9302 1.25858 20.8429C-0.0128533 20.7884 -0.488472 22.6158 0.623838 23.2816C12.753 30.5423 26.5815 22.6116 26.5815 7.1732C26.5808 6.95974 26.5715 6.7475 26.5535 6.53665C27.72 5.14191 28.5496 3.45423 28.9634 1.62322ZM23.0844 4.16119C23.3963 4.54755 23.8894 4.70105 24.3444 4.55341C24.6242 4.46261 24.9012 4.36273 25.1748 4.25396C24.9467 4.57506 24.6975 4.87987 24.4283 5.16585C24.1412 5.47096 24.0143 5.91033 24.09 6.33713C24.1392 6.61415 24.1643 6.89548 24.1652 7.1775C24.1652 18.8192 15.2384 25.4554 5.96096 22.8255C7.51259 22.3482 8.99402 21.6061 10.3461 20.6172C11.1301 20.0437 11.0241 18.7652 10.1582 18.3505C6.93111 16.8051 5.05868 14.6063 4.24074 11.8978C3.60284 9.78551 3.63774 7.4965 4.115 5.27685C6.82834 8.2545 10.592 9.92544 14.5314 9.81537C15.1862 9.79708 15.7082 9.21984 15.7082 8.51403V7.21225C15.6845 5.29405 16.7646 3.57954 18.4128 2.90169C20.061 2.22385 21.9267 2.72684 23.0844 4.16119Z" fill="white"/>
</svg>
