<svg width="29" height="28" viewBox="0 0 29 28" fill="none" xmlns="http://www.w3.org/2000/svg">
<path fill-rule="evenodd" clip-rule="evenodd" d="M21.0909 0H7.90909C3.54102 0 0 3.41892 0 7.63636V20.3636C0 24.5811 3.54102 28 7.90909 28H21.0909C25.459 28 29 24.5811 29 20.3636V7.63636C29 3.41892 25.459 0 21.0909 0ZM2.63636 7.63636C2.63636 4.82473 4.99704 2.54545 7.90909 2.54545H21.0909C24.003 2.54545 26.3636 4.82473 26.3636 7.63636V20.3636C26.3636 23.1753 24.003 25.4545 21.0909 25.4545H7.90909C4.99704 25.4545 2.63636 23.1753 2.63636 20.3636V7.63636ZM21.0767 13.0115C21.4937 15.7271 20.06 18.3949 17.5202 19.6292C14.9804 20.8634 11.9071 20.3859 9.89656 18.4447C7.88598 16.5035 7.39145 13.5361 8.6698 11.0839C9.94816 8.63168 12.7112 7.24744 15.5238 7.65013C18.3958 8.06132 20.6508 10.2386 21.0767 13.0115ZM15.1371 10.1681C16.8603 10.4148 18.2133 11.7211 18.4688 13.3849C18.719 15.0143 17.8588 16.6149 16.335 17.3555C14.8111 18.096 12.9671 17.8095 11.7607 16.6448C10.5544 15.4801 10.2577 13.6997 11.0247 12.2283C11.7917 10.757 13.4495 9.92643 15.1371 10.1681Z" fill="white"/>
</svg>
