<svg width="16" height="28" viewBox="0 0 16 28" fill="none" xmlns="http://www.w3.org/2000/svg">
<path fill-rule="evenodd" clip-rule="evenodd" d="M11.0765 0C6.99825 0 3.69217 3.41892 3.69217 7.63636V10.1818H1.23072C0.551013 10.1818 0 10.7516 0 11.4545V16.5455C0 17.2484 0.551013 17.8182 1.23072 17.8182H3.69217V26.7273C3.69217 27.4302 4.24318 28 4.92289 28H9.84578C10.5255 28 11.0765 27.4302 11.0765 26.7273V17.8182H13.5379C14.1027 17.8182 14.595 17.4207 14.7319 16.8541L15.9626 11.7632C16.1568 10.9599 15.5693 10.1818 14.7687 10.1818H11.0765V7.63636H14.7687C15.4484 7.63636 15.9994 7.06654 15.9994 6.36364V1.27273C15.9994 0.569819 15.4484 0 14.7687 0H11.0765ZM11.0765 2.54545H13.5379V5.09091H11.0765C9.71708 5.09091 8.61506 6.23055 8.61506 7.63636V11.4545C8.61506 12.1575 9.16607 12.7273 9.84578 12.7273H13.1924L12.577 15.2727H9.84578C9.16607 15.2727 8.61506 15.8425 8.61506 16.5455V25.4545H6.15361V16.5455C6.15361 15.8425 5.6026 15.2727 4.92289 15.2727H2.46145V12.7273H4.92289C5.6026 12.7273 6.15361 12.1575 6.15361 11.4545V7.63636C6.15361 4.82473 8.35767 2.54545 11.0765 2.54545Z" fill="white"/>
</svg>
