<svg width="57" height="53" viewBox="0 0 57 53" fill="none" xmlns="http://www.w3.org/2000/svg">
<path d="M39.2431 7.76465L25.0864 22.2415L33.4139 31.0153L23.4863 42.3529" stroke="#FEFEFE" stroke-width="3.456"/>
<path d="M43.5406 2L40.6758 4.88235" stroke="#FEFEFE" stroke-width="3.456"/>
<path d="M44.9732 19.2941V27.9411" stroke="#FEFEFE" stroke-width="3.456"/>
<path d="M33.5137 10.6471L41.1919 19.2942H46.4056" stroke="#FEFEFE" stroke-width="3.456"/>
<path fill-rule="evenodd" clip-rule="evenodd" d="M44.9728 51C50.5108 51 54.9999 46.161 54.9999 40.1914C54.9999 34.2222 50.5108 29.3823 44.9728 29.3823C39.4349 29.3823 34.9458 34.2222 34.9458 40.1914C34.9458 46.161 39.4349 51 44.9728 51Z" stroke="#FEFEFE" stroke-width="3.456"/>
<path fill-rule="evenodd" clip-rule="evenodd" d="M12.027 51C17.565 51 22.0541 46.161 22.0541 40.1914C22.0541 34.2222 17.565 29.3823 12.027 29.3823C6.48908 29.3823 2 34.2222 2 40.1914C2 46.161 6.48908 51 12.027 51Z" stroke="#FEFEFE" stroke-width="3.456"/>
<path d="M19.189 32.2647L26.3511 23.6177" stroke="#FEFEFE" stroke-width="3.456"/>
</svg>
